{
	"asset":{
		"generator":"Khronos glTF Blender I/O v4.2.57",
		"version":"2.0"
	},
	"scene":0,
	"scenes":[
		{
			"name":"Scene",
			"nodes":[
				0
			]
		}
	],
	"nodes":[
		{
			"mesh":0,
			"name":"\u041a\u043e\u043b\u044c\u0446\u043e_\u0410\u0440\u0442\u0430\u0441\u0438\u043c_18\u0440.011"
		}
	],
	"animations":[
		{
			"channels":[
				{
					"sampler":0,
					"target":{
						"node":0,
						"path":"translation"
					}
				},
				{
					"sampler":1,
					"target":{
						"node":0,
						"path":"rotation"
					}
				}
			],
			"name":"\u041a\u043e\u043b\u044c\u0446\u043e_\u0410\u0440\u0442\u0430\u0441\u0438\u043c_18\u0440.011Action.001",
			"samplers":[
				{
					"input":3,
					"interpolation":"STEP",
					"output":4
				},
				{
					"input":5,
					"interpolation":"LINEAR",
					"output":6
				}
			]
		}
	],
	"materials":[
		{
			"doubleSided":true,
			"name":"Material.001"
		}
	],
	"meshes":[
		{
			"name":"\u041a\u043e\u043b\u044c\u0446\u043e_\u0410\u0440\u0442\u0430\u0441\u0438\u043c_18\u0440.004",
			"primitives":[
				{
					"attributes":{
						"POSITION":0,
						"NORMAL":1
					},
					"indices":2,
					"material":0
				}
			]
		}
	],
	"accessors":[
		{
			"bufferView":0,
			"componentType":5126,
			"count":152173,
			"max":[
				0.004486273508518934,
				0.011511576361954212,
				0.011661367490887642
			],
			"min":[
				-0.004487308673560619,
				-0.011482146568596363,
				-0.011578227393329144
			],
			"type":"VEC3"
		},
		{
			"bufferView":1,
			"componentType":5126,
			"count":152173,
			"type":"VEC3"
		},
		{
			"bufferView":2,
			"componentType":5125,
			"count":583770,
			"type":"SCALAR"
		},
		{
			"bufferView":3,
			"componentType":5126,
			"count":2,
			"max":[
				1.3333333333333333
			],
			"min":[
				0.03333333333333333
			],
			"type":"SCALAR"
		},
		{
			"bufferView":4,
			"componentType":5126,
			"count":2,
			"type":"VEC3"
		},
		{
			"bufferView":5,
			"componentType":5126,
			"count":40,
			"max":[
				1.3333333333333333
			],
			"min":[
				0.03333333333333333
			],
			"type":"SCALAR"
		},
		{
			"bufferView":6,
			"componentType":5126,
			"count":40,
			"type":"VEC4"
		}
	],
	"bufferViews":[
		{
			"buffer":0,
			"byteLength":1826076,
			"byteOffset":0,
			"target":34962
		},
		{
			"buffer":0,
			"byteLength":1826076,
			"byteOffset":1826076,
			"target":34962
		},
		{
			"buffer":0,
			"byteLength":2335080,
			"byteOffset":3652152,
			"target":34963
		},
		{
			"buffer":0,
			"byteLength":8,
			"byteOffset":5987232
		},
		{
			"buffer":0,
			"byteLength":24,
			"byteOffset":5987240
		},
		{
			"buffer":0,
			"byteLength":160,
			"byteOffset":5987264
		},
		{
			"buffer":0,
			"byteLength":640,
			"byteOffset":5987424
		}
	],
	"buffers":[
		{
			"byteLength":5988064,
			"uri":"Ring.bin"
		}
	]
}
