{
	"asset":{
		"generator":"Khronos glTF Blender I/O v4.2.57",
		"version":"2.0"
	},
	"scene":0,
	"scenes":[
		{
			"name":"Scene",
			"nodes":[
				0
			]
		}
	],
	"nodes":[
		{
			"mesh":0,
			"name":"\u041a\u043e\u043b\u044c\u0446\u043e_\u0410\u0440\u0442\u0430\u0441\u0438\u043c_18\u0440.011"
		}
	],
	"animations":[
		{
			"channels":[
				{
					"sampler":0,
					"target":{
						"node":0,
						"path":"translation"
					}
				},
				{
					"sampler":1,
					"target":{
						"node":0,
						"path":"rotation"
					}
				}
			],
			"name":"\u041a\u043e\u043b\u044c\u0446\u043e_\u0410\u0440\u0442\u0430\u0441\u0438\u043c_18\u0440.011Action.001",
			"samplers":[
				{
					"input":3,
					"interpolation":"STEP",
					"output":4
				},
				{
					"input":5,
					"interpolation":"LINEAR",
					"output":6
				}
			]
		}
	],
	"materials":[
		{
			"doubleSided":true,
			"name":"Material",
			"pbrMetallicRoughness":{
				"baseColorFactor":[
					0.3704645037651062,
					0.3704645037651062,
					0.3704645037651062,
					1
				],
				"roughnessFactor":0.09717315435409546
			}
		}
	],
	"meshes":[
		{
			"name":"\u041a\u043e\u043b\u044c\u0446\u043e_\u0410\u0440\u0442\u0430\u0441\u0438\u043c_18\u0440.004",
			"primitives":[
				{
					"attributes":{
						"POSITION":0,
						"NORMAL":1
					},
					"indices":2,
					"material":0
				}
			]
		}
	],
	"accessors":[
		{
			"bufferView":0,
			"componentType":5126,
			"count":152195,
			"max":[
				0.032606981694698334,
				0.03975188359618187,
				0.01242663525044918
			],
			"min":[
				-0.03251250460743904,
				-0.024639075621962547,
				-0.012367842718958855
			],
			"type":"VEC3"
		},
		{
			"bufferView":1,
			"componentType":5126,
			"count":152195,
			"type":"VEC3"
		},
		{
			"bufferView":2,
			"componentType":5125,
			"count":583770,
			"type":"SCALAR"
		},
		{
			"bufferView":3,
			"componentType":5126,
			"count":2,
			"max":[
				2
			],
			"min":[
				0.03333333333333333
			],
			"type":"SCALAR"
		},
		{
			"bufferView":4,
			"componentType":5126,
			"count":2,
			"type":"VEC3"
		},
		{
			"bufferView":5,
			"componentType":5126,
			"count":60,
			"max":[
				2
			],
			"min":[
				0.03333333333333333
			],
			"type":"SCALAR"
		},
		{
			"bufferView":6,
			"componentType":5126,
			"count":60,
			"type":"VEC4"
		}
	],
	"bufferViews":[
		{
			"buffer":0,
			"byteLength":1826340,
			"byteOffset":0,
			"target":34962
		},
		{
			"buffer":0,
			"byteLength":1826340,
			"byteOffset":1826340,
			"target":34962
		},
		{
			"buffer":0,
			"byteLength":2335080,
			"byteOffset":3652680,
			"target":34963
		},
		{
			"buffer":0,
			"byteLength":8,
			"byteOffset":5987760
		},
		{
			"buffer":0,
			"byteLength":24,
			"byteOffset":5987768
		},
		{
			"buffer":0,
			"byteLength":240,
			"byteOffset":5987792
		},
		{
			"buffer":0,
			"byteLength":960,
			"byteOffset":5988032
		}
	],
	"buffers":[
		{
			"byteLength":5988992,
			"uri":"Ring.bin"
		}
	]
}
