{
	"asset":{
		"generator":"Khronos glTF Blender I/O v4.2.57",
		"version":"2.0"
	},
	"scene":0,
	"scenes":[
		{
			"name":"Scene",
			"nodes":[
				0
			]
		}
	],
	"nodes":[
		{
			"mesh":0,
			"name":"\u0411\u0440\u0430\u0441\u043b\u0435\u0442_\u0410\u0440\u0442\u0430\u0441\u0438\u043c_\u042f\u043a\u043e\u0440\u043a\u0430_\u041f\u0440\u043e\u0441\u043c\u043e\u0442\u0440"
		}
	],
	"materials":[
		{
			"doubleSided":true,
			"name":"Material.001"
		}
	],
	"meshes":[
		{
			"name":"\u0411\u0440\u0430\u0441\u043b\u0435\u0442_\u0410\u0440\u0442\u0430\u0441\u0438\u043c_\u042f\u043a\u043e\u0440\u043a\u0430_\u041f\u0440\u043e\u0441\u043c\u043e\u0442\u0440",
			"primitives":[
				{
					"attributes":{
						"POSITION":0,
						"NORMAL":1
					},
					"indices":2,
					"material":0
				}
			]
		}
	],
	"accessors":[
		{
			"bufferView":0,
			"componentType":5126,
			"count":220547,
			"max":[
				0.009665833786129951,
				0.046845126897096634,
				0.02857968583703041
			],
			"min":[
				-0.00989763718098402,
				-0.03260326758027077,
				-0.030223136767745018
			],
			"type":"VEC3"
		},
		{
			"bufferView":1,
			"componentType":5126,
			"count":220547,
			"type":"VEC3"
		},
		{
			"bufferView":2,
			"componentType":5125,
			"count":841839,
			"type":"SCALAR"
		}
	],
	"bufferViews":[
		{
			"buffer":0,
			"byteLength":2646564,
			"byteOffset":0,
			"target":34962
		},
		{
			"buffer":0,
			"byteLength":2646564,
			"byteOffset":2646564,
			"target":34962
		},
		{
			"buffer":0,
			"byteLength":3367356,
			"byteOffset":5293128,
			"target":34963
		}
	],
	"buffers":[
		{
			"byteLength":8660484,
			"uri":"Bracelete02.bin"
		}
	]
}
