{
	"asset":{
		"generator":"Khronos glTF Blender I/O v4.2.57",
		"version":"2.0"
	},
	"scene":0,
	"scenes":[
		{
			"name":"Scene",
			"nodes":[
				0
			]
		}
	],
	"nodes":[
		{
			"mesh":0,
			"name":"\u0411\u0440\u0430\u0441\u043b\u0435\u0442_\u041a\u0440\u0435\u0441\u0442\u044b_18\u043c\u043c_\u0423\u0442\u043e\u043b\u0449.001",
			"rotation":[
				0,
				0.9996039867401123,
				0,
				0.028139883652329445
			]
		}
	],
	"animations":[
		{
			"channels":[
				{
					"sampler":0,
					"target":{
						"node":0,
						"path":"rotation"
					}
				}
			],
			"name":"\u0411\u0440\u0430\u0441\u043b\u0435\u0442_\u041a\u0440\u0435\u0441\u0442\u044b_18\u043c\u043c_\u0423\u0442\u043e\u043b\u0449.001Action",
			"samplers":[
				{
					"input":4,
					"interpolation":"LINEAR",
					"output":5
				}
			]
		}
	],
	"materials":[
		{
			"doubleSided":true,
			"name":"Material",
			"pbrMetallicRoughness":{
				"baseColorFactor":[
					0.3704645037651062,
					0.3704645037651062,
					0.3704645037651062,
					1
				],
				"roughnessFactor":0.09717315435409546
			}
		}
	],
	"meshes":[
		{
			"name":"\u0411\u0440\u0430\u0441\u043b\u0435\u0442_\u041a\u0440\u0435\u0441\u0442\u044b_18\u043c\u043c_\u0423\u0442\u043e\u043b\u0449.001",
			"primitives":[
				{
					"attributes":{
						"POSITION":0,
						"NORMAL":1,
						"TEXCOORD_0":2
					},
					"indices":3,
					"material":0
				}
			]
		}
	],
	"accessors":[
		{
			"bufferView":0,
			"componentType":5126,
			"count":261459,
			"max":[
				0.028831537812948227,
				0.04741358757019043,
				0.010723325423896313
			],
			"min":[
				-0.028314318507909775,
				-0.030981071293354034,
				-0.008840778842568398
			],
			"type":"VEC3"
		},
		{
			"bufferView":1,
			"componentType":5126,
			"count":261459,
			"type":"VEC3"
		},
		{
			"bufferView":2,
			"componentType":5126,
			"count":261459,
			"type":"VEC2"
		},
		{
			"bufferView":3,
			"componentType":5125,
			"count":596922,
			"type":"SCALAR"
		},
		{
			"bufferView":4,
			"componentType":5126,
			"count":40,
			"max":[
				1.3333333333333333
			],
			"min":[
				0.03333333333333333
			],
			"type":"SCALAR"
		},
		{
			"bufferView":5,
			"componentType":5126,
			"count":40,
			"type":"VEC4"
		}
	],
	"bufferViews":[
		{
			"buffer":0,
			"byteLength":3137508,
			"byteOffset":0,
			"target":34962
		},
		{
			"buffer":0,
			"byteLength":3137508,
			"byteOffset":3137508,
			"target":34962
		},
		{
			"buffer":0,
			"byteLength":2091672,
			"byteOffset":6275016,
			"target":34962
		},
		{
			"buffer":0,
			"byteLength":2387688,
			"byteOffset":8366688,
			"target":34963
		},
		{
			"buffer":0,
			"byteLength":160,
			"byteOffset":10754376
		},
		{
			"buffer":0,
			"byteLength":640,
			"byteOffset":10754536
		}
	],
	"buffers":[
		{
			"byteLength":10755176,
			"uri":"Bracelete01.bin"
		}
	]
}
