{
	"asset":{
		"generator":"Khronos glTF Blender I/O v4.2.57",
		"version":"2.0"
	},
	"scene":0,
	"scenes":[
		{
			"name":"Scene",
			"nodes":[
				0
			]
		}
	],
	"nodes":[
		{
			"mesh":0,
			"name":"\u0411\u0440\u0430\u0441\u043b\u0435\u0442_\u041a\u0440\u0435\u0441\u0442\u044b_18\u043c\u043c_\u0423\u0442\u043e\u043b\u0449.001"
		}
	],
	"materials":[
		{
			"doubleSided":true,
			"name":"Braclete Main",
			"normalTexture":{
				"index":0
			},
			"pbrMetallicRoughness":{
				"baseColorTexture":{
					"index":1
				},
				"metallicRoughnessTexture":{
					"index":2
				}
			}
		}
	],
	"meshes":[
		{
			"name":"\u0411\u0440\u0430\u0441\u043b\u0435\u0442_\u041a\u0440\u0435\u0441\u0442\u044b_18\u043c\u043c_\u0423\u0442\u043e\u043b\u0449.001",
			"primitives":[
				{
					"attributes":{
						"POSITION":0,
						"NORMAL":1,
						"TEXCOORD_0":2
					},
					"indices":3,
					"material":0
				}
			]
		}
	],
	"textures":[
		{
			"sampler":0,
			"source":0
		},
		{
			"sampler":0,
			"source":1
		},
		{
			"sampler":0,
			"source":1
		}
	],
	"images":[
		{
			"mimeType":"image/png",
			"name":"AO Braclete Main Bump Flip",
			"uri":"../Bracelete02/textures/AO%20Braclete%20Main%20Bump%20Flip.png"
		},
		{
			"mimeType":"image/png",
			"name":"AO Braclete Main Local",
			"uri":"../Bracelete02/textures/AO%20Braclete%20Main%20Local.png"
		}
	],
	"accessors":[
		{
			"bufferView":0,
			"componentType":5126,
			"count":261473,
			"max":[
				0.008840779773890972,
				0.04741358757019043,
				0.028831537812948227
			],
			"min":[
				-0.010723326355218887,
				-0.030981071293354034,
				-0.028314318507909775
			],
			"type":"VEC3"
		},
		{
			"bufferView":1,
			"componentType":5126,
			"count":261473,
			"type":"VEC3"
		},
		{
			"bufferView":2,
			"componentType":5126,
			"count":261473,
			"type":"VEC2"
		},
		{
			"bufferView":3,
			"componentType":5125,
			"count":596922,
			"type":"SCALAR"
		}
	],
	"bufferViews":[
		{
			"buffer":0,
			"byteLength":3137676,
			"byteOffset":0,
			"target":34962
		},
		{
			"buffer":0,
			"byteLength":3137676,
			"byteOffset":3137676,
			"target":34962
		},
		{
			"buffer":0,
			"byteLength":2091784,
			"byteOffset":6275352,
			"target":34962
		},
		{
			"buffer":0,
			"byteLength":2387688,
			"byteOffset":8367136,
			"target":34963
		}
	],
	"samplers":[
		{
			"magFilter":9729,
			"minFilter":9987
		}
	],
	"buffers":[
		{
			"byteLength":10754824,
			"uri":"Bracelete01.bin"
		}
	]
}
