{
	"asset":{
		"generator":"Khronos glTF Blender I/O v4.2.57",
		"version":"2.0"
	},
	"scene":0,
	"scenes":[
		{
			"name":"Scene",
			"nodes":[
				0
			]
		}
	],
	"nodes":[
		{
			"mesh":0,
			"name":"\u0411\u0440\u0430\u0441\u043b\u0435\u0442_\u041a\u0440\u0435\u0441\u0442\u044b_18\u043c\u043c_\u0423\u0442\u043e\u043b\u0449.001"
		}
	],
	"materials":[
		{
			"doubleSided":true,
			"name":"Braclete Main",
			"normalTexture":{
				"index":0
			},
			"pbrMetallicRoughness":{
				"baseColorTexture":{
					"index":1
				},
				"metallicRoughnessTexture":{
					"index":2
				}
			}
		}
	],
	"meshes":[
		{
			"name":"\u0411\u0440\u0430\u0441\u043b\u0435\u0442_\u041a\u0440\u0435\u0441\u0442\u044b_18\u043c\u043c_\u0423\u0442\u043e\u043b\u0449.001",
			"primitives":[
				{
					"attributes":{
						"POSITION":0,
						"NORMAL":1,
						"TEXCOORD_0":2
					},
					"indices":3,
					"material":0
				}
			]
		}
	],
	"textures":[
		{
			"sampler":0,
			"source":0
		},
		{
			"sampler":0,
			"source":1
		},
		{
			"sampler":0,
			"source":1
		}
	],
	"images":[
		{
			"mimeType":"image/png",
			"name":"AO Braclete Main Bump Flip",
			"uri":"textures/AO%20Braclete%20Main%20Bump%20Flip.png"
		},
		{
			"mimeType":"image/png",
			"name":"AO Braclete Main Local",
			"uri":"textures/AO%20Braclete%20Main%20Local.png"
		}
	],
	"accessors":[
		{
			"bufferView":0,
			"componentType":5126,
			"count":736641,
			"max":[
				0.008840754628181458,
				0.047409266233444214,
				0.028832711279392242
			],
			"min":[
				-0.010716146789491177,
				-0.030977372080087662,
				-0.028319869190454483
			],
			"type":"VEC3"
		},
		{
			"bufferView":1,
			"componentType":5126,
			"count":736641,
			"type":"VEC3"
		},
		{
			"bufferView":2,
			"componentType":5126,
			"count":736641,
			"type":"VEC2"
		},
		{
			"bufferView":3,
			"componentType":5125,
			"count":2984622,
			"type":"SCALAR"
		}
	],
	"bufferViews":[
		{
			"buffer":0,
			"byteLength":8839692,
			"byteOffset":0,
			"target":34962
		},
		{
			"buffer":0,
			"byteLength":8839692,
			"byteOffset":8839692,
			"target":34962
		},
		{
			"buffer":0,
			"byteLength":5893128,
			"byteOffset":17679384,
			"target":34962
		},
		{
			"buffer":0,
			"byteLength":11938488,
			"byteOffset":23572512,
			"target":34963
		}
	],
	"samplers":[
		{
			"magFilter":9729,
			"minFilter":9987
		}
	],
	"buffers":[
		{
			"byteLength":35511000,
			"uri":"scene.bin"
		}
	]
}
